<svg width="400" height="400" viewBox="0 0 400 400" fill="none" xmlns="http://www.w3.org/2000/svg">
<rect width="400" height="400" rx="200" fill="black"/>
<path d="M103.401 146.438C110.332 146.438 116.535 147.936 122.011 150.93C127.572 153.925 131.936 158.118 135.102 163.508C138.267 168.813 139.85 174.802 139.85 181.476C139.85 189.091 137.968 195.765 134.203 201.497C130.439 207.144 125.219 211.508 118.546 214.588C111.872 217.668 104.3 219.209 95.829 219.209V219.209C89.3875 219.209 83.9337 225.23 86.3309 231.209C86.6147 231.917 86.9054 232.628 87.203 233.342C89.2523 238.257 85.7596 243.85 80.4346 243.85V243.85C77.6161 243.85 75.0461 242.209 73.9339 239.619C71.1109 233.045 68.8042 226.705 67.0138 220.598C65.7339 216.232 62.5676 212.657 58.511 210.599C56.7738 209.717 54.9683 208.725 53.0946 207.624C49.7434 205.654 48.7818 201.305 50.7967 197.98L53.2346 193.958C54.1232 192.492 56.0873 192.089 57.5159 193.037C57.814 193.234 58.1304 193.443 58.4653 193.662C60.0958 194.73 62.3316 193.436 62.3316 191.487V191.487C62.3316 182.674 63.9573 174.888 67.2086 168.128C70.5455 161.283 75.2942 155.979 81.4546 152.214C87.6151 148.364 94.9306 146.438 103.401 146.438ZM77.476 191.487V191.487C77.476 198.685 82.8283 204.851 89.9991 205.481C91.9071 205.649 93.8504 205.733 95.829 205.733C104.984 205.733 112.086 203.508 117.134 199.059C122.267 194.61 124.834 188.706 124.834 181.348C124.834 177.241 123.893 173.561 122.011 170.31C120.214 167.059 117.69 164.492 114.439 162.61C111.187 160.727 107.508 159.786 103.401 159.786C98.1819 159.786 93.6044 161.112 89.6685 163.765C85.7327 166.332 82.6953 170.011 80.5562 174.802C78.5028 179.594 77.476 185.155 77.476 191.487Z" fill="white"/>
<path d="M200.123 245.005C190.882 245.005 182.626 242.909 175.353 238.717C168.166 234.438 162.519 228.535 158.412 221.005C154.39 213.476 152.38 205.048 152.38 195.722C152.38 186.31 154.39 177.882 158.412 170.438C162.519 162.909 168.166 157.048 175.353 152.856C182.626 148.578 190.882 146.438 200.123 146.438C209.364 146.438 217.62 148.578 224.893 152.856C232.166 157.048 237.813 162.909 241.834 170.438C245.941 177.882 247.995 186.31 247.995 195.722C247.995 205.134 245.941 213.604 241.834 221.134C237.813 228.578 232.166 234.438 224.893 238.717C217.62 242.909 209.364 245.005 200.123 245.005ZM167.396 195.722C167.396 202.824 168.722 209.069 171.374 214.46C174.112 219.85 177.963 224.043 182.925 227.037C187.888 230.032 193.62 231.529 200.123 231.529C206.626 231.529 212.358 230.032 217.321 227.037C222.284 224.043 226.134 219.85 228.872 214.46C231.61 209.069 232.979 202.824 232.979 195.722C232.979 188.62 231.61 182.374 228.872 176.984C226.134 171.594 222.284 167.401 217.321 164.406C212.358 161.412 206.626 159.914 200.123 159.914C193.62 159.914 187.888 161.412 182.925 164.406C177.963 167.401 174.112 171.594 171.374 176.984C168.722 182.374 167.396 188.62 167.396 195.722Z" fill="white"/>
<path d="M311.957 146.438C318.888 146.438 325.091 147.936 330.567 150.93C336.128 153.925 340.492 158.118 343.658 163.508C346.824 168.813 348.407 174.802 348.407 181.476C348.407 189.091 346.524 195.765 342.759 201.497C338.995 207.144 333.775 211.508 327.102 214.588C320.428 217.668 312.856 219.209 304.385 219.209V219.209C297.944 219.209 292.49 225.23 294.887 231.209C295.171 231.917 295.462 232.628 295.759 233.342C297.808 238.257 294.316 243.85 288.991 243.85V243.85C286.172 243.85 283.602 242.209 282.49 239.619C279.667 233.045 277.36 226.705 275.57 220.598C274.29 216.232 271.124 212.657 267.067 210.599C265.33 209.717 263.524 208.725 261.651 207.624C258.3 205.654 257.338 201.305 259.353 197.98L261.791 193.958C262.679 192.492 264.643 192.089 266.072 193.037C266.37 193.234 266.687 193.443 267.021 193.662C268.652 194.73 270.888 193.436 270.888 191.487V191.487C270.888 182.674 272.513 174.888 275.765 168.128C279.102 161.283 283.85 155.979 290.011 152.214C296.171 148.364 303.487 146.438 311.957 146.438ZM286.032 191.487V191.487C286.032 198.685 291.384 204.851 298.555 205.481C300.463 205.649 302.407 205.733 304.385 205.733C313.54 205.733 320.642 203.508 325.69 199.059C330.824 194.61 333.39 188.706 333.39 181.348C333.39 177.241 332.449 173.561 330.567 170.31C328.77 167.059 326.246 164.492 322.995 162.61C319.743 160.727 316.064 159.786 311.957 159.786C306.738 159.786 302.161 161.112 298.225 163.765C294.289 166.332 291.251 170.011 289.112 174.802C287.059 179.594 286.032 185.155 286.032 191.487Z" fill="white"/>
</svg>
