<svg width="611" height="152" viewBox="0 0 611 152" fill="none" xmlns="http://www.w3.org/2000/svg">
<path d="M35.495 19.28C39.815 19.28 43.6817 20.2133 47.095 22.08C50.5617 23.9467 53.2817 26.56 55.255 29.92C57.2283 33.2267 58.215 36.96 58.215 41.12C58.215 45.8667 57.0417 50.0267 54.695 53.6C52.3483 57.12 49.095 59.84 44.935 61.76C40.775 63.68 36.055 64.64 30.775 64.64C27.735 64.64 24.8017 64.3733 21.975 63.84C23.4683 68.96 25.6017 74.3467 28.375 80H18.295C15.255 73.3333 13.0417 67.04 11.655 61.12C8.40167 59.8933 4.66833 57.8933 0.455 55.12L5.255 47.2C6.055 47.7867 7.62833 48.8267 9.975 50.32C9.92167 49.68 9.895 48.6933 9.895 47.36C9.895 41.8667 10.9083 37.0133 12.935 32.8C15.015 28.5333 17.975 25.2267 21.815 22.88C25.655 20.48 30.215 19.28 35.495 19.28ZM19.335 47.36C19.335 49.28 19.5217 51.7333 19.895 54.72C23.3083 55.7333 26.935 56.24 30.775 56.24C36.4817 56.24 40.9083 54.8533 44.055 52.08C47.255 49.3067 48.855 45.6267 48.855 41.04C48.855 38.48 48.2683 36.1867 47.095 34.16C45.975 32.1333 44.4017 30.5333 42.375 29.36C40.3483 28.1867 38.055 27.6 35.495 27.6C32.2417 27.6 29.3883 28.4267 26.935 30.08C24.4817 31.68 22.5883 33.9733 21.255 36.96C19.975 39.9467 19.335 43.4133 19.335 47.36ZM66.1444 40.24H73.9844L74.4644 45.76C75.691 43.7867 77.2377 42.2667 79.1044 41.2C81.0244 40.1333 83.2644 39.6 85.8244 39.6C87.1044 39.6 88.4644 39.7867 89.9044 40.16L88.7844 48.32C87.3444 48 85.9844 47.84 84.7044 47.84C81.771 47.84 79.3444 48.8533 77.4244 50.88C75.5044 52.9067 74.5444 55.7333 74.5444 59.36V80H66.1444V40.24ZM112.656 80.72C108.71 80.72 105.136 79.84 101.936 78.08C98.7363 76.2667 96.2296 73.8133 94.4163 70.72C92.6563 67.5733 91.7763 64.0267 91.7763 60.08C91.7763 56.1867 92.6563 52.6667 94.4163 49.52C96.2296 46.3733 98.7363 43.92 101.936 42.16C105.136 40.3467 108.71 39.44 112.656 39.44C116.603 39.44 120.176 40.3467 123.376 42.16C126.576 43.92 129.056 46.3733 130.816 49.52C132.63 52.6667 133.536 56.1867 133.536 60.08C133.536 64.0267 132.63 67.5733 130.816 70.72C129.056 73.8133 126.576 76.2667 123.376 78.08C120.176 79.84 116.603 80.72 112.656 80.72ZM100.496 60.08C100.496 63.9733 101.616 67.12 103.856 69.52C106.096 71.92 109.03 73.12 112.656 73.12C116.23 73.12 119.136 71.92 121.376 69.52C123.616 67.12 124.736 63.9733 124.736 60.08C124.736 56.1867 123.616 53.0667 121.376 50.72C119.19 48.32 116.283 47.12 112.656 47.12C109.03 47.12 106.096 48.32 103.856 50.72C101.616 53.0667 100.496 56.1867 100.496 60.08ZM160.625 80.72C156.678 80.72 153.105 79.84 149.905 78.08C146.705 76.2667 144.198 73.8133 142.385 70.72C140.625 67.5733 139.745 64.0267 139.745 60.08C139.745 56.1867 140.625 52.6667 142.385 49.52C144.198 46.3733 146.705 43.92 149.905 42.16C153.105 40.3467 156.678 39.44 160.625 39.44C164.572 39.44 168.145 40.3467 171.345 42.16C174.545 43.92 177.025 46.3733 178.785 49.52C180.598 52.6667 181.505 56.1867 181.505 60.08C181.505 64.0267 180.598 67.5733 178.785 70.72C177.025 73.8133 174.545 76.2667 171.345 78.08C168.145 79.84 164.572 80.72 160.625 80.72ZM148.465 60.08C148.465 63.9733 149.585 67.12 151.825 69.52C154.065 71.92 156.998 73.12 160.625 73.12C164.198 73.12 167.105 71.92 169.345 69.52C171.585 67.12 172.705 63.9733 172.705 60.08C172.705 56.1867 171.585 53.0667 169.345 50.72C167.158 48.32 164.252 47.12 160.625 47.12C156.998 47.12 154.065 48.32 151.825 50.72C149.585 53.0667 148.465 56.1867 148.465 60.08ZM193.965 33.76C193.965 29.3333 195.272 25.8133 197.885 23.2C200.552 20.5867 203.992 19.28 208.205 19.28C210.552 19.28 212.792 19.68 214.925 20.48L212.925 27.6C211.432 27.0667 210.098 26.8 208.925 26.8C206.792 26.8 205.138 27.3867 203.965 28.56C202.845 29.7333 202.285 31.4133 202.285 33.6V40.24H216.285V47.52H202.285V80H193.965V47.52H184.525V45.28L188.845 40.24H193.965V33.76ZM258.359 80.72C254.413 80.72 250.839 79.84 247.639 78.08C244.439 76.2667 241.933 73.8133 240.119 70.72C238.359 67.5733 237.479 64.0267 237.479 60.08C237.479 56.1867 238.359 52.6667 240.119 49.52C241.933 46.3733 244.439 43.92 247.639 42.16C250.839 40.3467 254.413 39.44 258.359 39.44C262.306 39.44 265.879 40.3467 269.079 42.16C272.279 43.92 274.759 46.3733 276.519 49.52C278.333 52.6667 279.239 56.1867 279.239 60.08C279.239 64.0267 278.333 67.5733 276.519 70.72C274.759 73.8133 272.279 76.2667 269.079 78.08C265.879 79.84 262.306 80.72 258.359 80.72ZM246.199 60.08C246.199 63.9733 247.319 67.12 249.559 69.52C251.799 71.92 254.733 73.12 258.359 73.12C261.933 73.12 264.839 71.92 267.079 69.52C269.319 67.12 270.439 63.9733 270.439 60.08C270.439 56.1867 269.319 53.0667 267.079 50.72C264.893 48.32 261.986 47.12 258.359 47.12C254.733 47.12 251.799 48.32 249.559 50.72C247.319 53.0667 246.199 56.1867 246.199 60.08ZM291.699 33.76C291.699 29.3333 293.006 25.8133 295.619 23.2C298.286 20.5867 301.726 19.28 305.939 19.28C308.286 19.28 310.526 19.68 312.659 20.48L310.659 27.6C309.166 27.0667 307.833 26.8 306.659 26.8C304.526 26.8 302.873 27.3867 301.699 28.56C300.579 29.7333 300.019 31.4133 300.019 33.6V40.24H314.019V47.52H300.019V80H291.699V47.52H282.259V45.28L286.579 40.24H291.699V33.76ZM367.214 19.28C371.534 19.28 375.4 20.2133 378.814 22.08C382.28 23.9467 385 26.56 386.974 29.92C388.947 33.2267 389.934 36.96 389.934 41.12C389.934 45.8667 388.76 50.0267 386.414 53.6C384.067 57.12 380.814 59.84 376.654 61.76C372.494 63.68 367.774 64.64 362.494 64.64C359.454 64.64 356.52 64.3733 353.694 63.84C355.187 68.96 357.32 74.3467 360.094 80H350.014C346.974 73.3333 344.76 67.04 343.374 61.12C340.12 59.8933 336.387 57.8933 332.174 55.12L336.974 47.2C337.774 47.7867 339.347 48.8267 341.694 50.32C341.64 49.68 341.614 48.6933 341.614 47.36C341.614 41.8667 342.627 37.0133 344.654 32.8C346.734 28.5333 349.694 25.2267 353.534 22.88C357.374 20.48 361.934 19.28 367.214 19.28ZM351.054 47.36C351.054 49.28 351.24 51.7333 351.614 54.72C355.027 55.7333 358.654 56.24 362.494 56.24C368.2 56.24 372.627 54.8533 375.774 52.08C378.974 49.3067 380.574 45.6267 380.574 41.04C380.574 38.48 379.987 36.1867 378.814 34.16C377.694 32.1333 376.12 30.5333 374.094 29.36C372.067 28.1867 369.774 27.6 367.214 27.6C363.96 27.6 361.107 28.4267 358.654 30.08C356.2 31.68 354.307 33.9733 352.974 36.96C351.694 39.9467 351.054 43.4133 351.054 47.36ZM397.863 40.24H405.703L406.183 45.76C407.41 43.7867 408.956 42.2667 410.823 41.2C412.743 40.1333 414.983 39.6 417.543 39.6C418.823 39.6 420.183 39.7867 421.623 40.16L420.503 48.32C419.063 48 417.703 47.84 416.423 47.84C413.49 47.84 411.063 48.8533 409.143 50.88C407.223 52.9067 406.263 55.7333 406.263 59.36V80H397.863V40.24ZM444.375 80.72C440.428 80.72 436.855 79.84 433.655 78.08C430.455 76.2667 427.948 73.8133 426.135 70.72C424.375 67.5733 423.495 64.0267 423.495 60.08C423.495 56.1867 424.375 52.6667 426.135 49.52C427.948 46.3733 430.455 43.92 433.655 42.16C436.855 40.3467 440.428 39.44 444.375 39.44C448.322 39.44 451.895 40.3467 455.095 42.16C458.295 43.92 460.775 46.3733 462.535 49.52C464.348 52.6667 465.255 56.1867 465.255 60.08C465.255 64.0267 464.348 67.5733 462.535 70.72C460.775 73.8133 458.295 76.2667 455.095 78.08C451.895 79.84 448.322 80.72 444.375 80.72ZM432.215 60.08C432.215 63.9733 433.335 67.12 435.575 69.52C437.815 71.92 440.748 73.12 444.375 73.12C447.948 73.12 450.855 71.92 453.095 69.52C455.335 67.12 456.455 63.9733 456.455 60.08C456.455 56.1867 455.335 53.0667 453.095 50.72C450.908 48.32 448.002 47.12 444.375 47.12C440.748 47.12 437.815 48.32 435.575 50.72C433.335 53.0667 432.215 56.1867 432.215 60.08ZM482.904 40.24V85.52C482.904 89.4667 481.784 92.5867 479.544 94.88C477.304 97.1733 474.237 98.32 470.344 98.32C468.264 98.32 466.317 97.9733 464.504 97.28L466.264 90.32C466.797 90.48 467.33 90.6133 467.864 90.72C468.344 90.8267 468.877 90.88 469.464 90.88C471.064 90.88 472.29 90.4267 473.144 89.52C474.05 88.6133 474.504 87.28 474.504 85.52V40.24H482.904ZM473.384 27.36C473.384 25.8133 473.89 24.56 474.904 23.6C475.917 22.5867 477.197 22.08 478.744 22.08C480.29 22.08 481.544 22.5867 482.504 23.6C483.517 24.56 484.024 25.8133 484.024 27.36C484.024 28.8533 483.517 30.1067 482.504 31.12C481.49 32.08 480.21 32.56 478.664 32.56C477.17 32.56 475.917 32.08 474.904 31.12C473.89 30.1067 473.384 28.8533 473.384 27.36ZM512.887 80.72C508.727 80.72 505.074 79.84 501.927 78.08C498.78 76.32 496.354 73.8933 494.647 70.8C492.994 67.7067 492.167 64.1867 492.167 60.24C492.167 56.2933 493.02 52.7467 494.727 49.6C496.487 46.4 498.887 43.92 501.927 42.16C505.02 40.3467 508.514 39.44 512.407 39.44C516.194 39.44 519.554 40.2667 522.487 41.92C525.42 43.52 527.714 45.76 529.367 48.64C531.02 51.52 531.847 54.8 531.847 58.48C531.847 60.0267 531.714 61.36 531.447 62.48H500.727C501.1 66 502.354 68.72 504.487 70.64C506.674 72.5067 509.474 73.44 512.887 73.44C515.714 73.44 518.007 72.8533 519.767 71.68C521.58 70.4533 522.86 68.7467 523.607 66.56L531.447 68.16C530.38 72.1067 528.194 75.2 524.887 77.44C521.58 79.6267 517.58 80.72 512.887 80.72ZM523.047 55.92C522.674 52.9867 521.527 50.6933 519.607 49.04C517.74 47.3333 515.34 46.48 512.407 46.48C509.634 46.48 507.207 47.3067 505.127 48.96C503.047 50.56 501.66 52.88 500.967 55.92H523.047ZM558.503 80.72C554.609 80.72 551.116 79.84 548.023 78.08C544.983 76.32 542.583 73.8933 540.823 70.8C539.063 67.6533 538.183 64.1067 538.183 60.16C538.183 56.2133 539.063 52.6667 540.823 49.52C542.583 46.3733 545.009 43.92 548.103 42.16C551.249 40.3467 554.769 39.44 558.663 39.44C563.409 39.44 567.436 40.7467 570.743 43.36C574.049 45.92 576.183 49.3333 577.143 53.6L568.743 55.12C568.156 52.6133 566.956 50.6667 565.143 49.28C563.383 47.84 561.196 47.12 558.582 47.12C555.169 47.12 552.369 48.32 550.183 50.72C547.996 53.12 546.903 56.2667 546.903 60.16C546.903 64.0533 547.969 67.2 550.103 69.6C552.236 71.9467 555.009 73.12 558.423 73.12C561.303 73.12 563.649 72.4 565.463 70.96C567.276 69.4667 568.476 67.44 569.063 64.88L577.383 66.32C576.903 69.04 575.783 71.4933 574.023 73.68C572.263 75.8667 570.049 77.6 567.383 78.88C564.716 80.1067 561.756 80.72 558.503 80.72ZM599.841 80.72C595.841 80.72 592.721 79.68 590.481 77.6C588.241 75.52 587.121 72.56 587.121 68.72V47.52H579.681V45.28L593.281 31.68H595.441V40.24H609.761V47.52H595.441V67.04C595.441 71.04 597.468 73.04 601.521 73.04C603.281 73.04 605.201 72.5867 607.281 71.68L609.201 78.56C606.215 80 603.095 80.72 599.841 80.72Z" fill="#64BAE1"/>
<path d="M460.191 145.216C456.711 145.216 454.095 142.624 454.095 139.048C454.095 135.472 456.735 132.832 460.239 132.832C463.167 132.832 465.255 134.536 465.807 137.08L463.287 137.536C462.927 136.048 461.823 135.136 460.215 135.136C458.199 135.136 456.711 136.696 456.711 139.048C456.711 141.4 458.175 142.936 460.191 142.936C461.943 142.936 463.047 141.952 463.383 140.464L465.879 140.896C465.447 143.368 463.215 145.216 460.191 145.216ZM474.294 145.216C470.79 145.216 468.198 142.6 468.198 139.024C468.198 135.472 470.79 132.832 474.294 132.832C477.822 132.832 480.39 135.472 480.39 139.024C480.39 142.6 477.822 145.216 474.294 145.216ZM474.294 142.936C476.358 142.936 477.75 141.352 477.75 139.024C477.75 136.696 476.358 135.136 474.294 135.136C472.206 135.136 470.838 136.696 470.838 139.024C470.838 141.352 472.206 142.936 474.294 142.936ZM482.516 145V133.072H484.46L484.604 134.104C485.108 133.312 485.948 132.832 486.932 132.832C487.964 132.832 488.852 133.36 489.284 134.344C489.86 133.384 490.844 132.832 491.948 132.832C493.676 132.832 494.9 134.032 494.9 136.456V145H492.692V136.6C492.692 135.592 492.236 134.992 491.324 134.992C490.46 134.992 489.812 135.64 489.812 136.696V145H487.604V136.6C487.604 135.592 487.052 134.992 486.236 134.992C485.348 134.992 484.724 135.64 484.724 136.72V145H482.516ZM497.435 145V142.816H502.283V135.256H498.035V133.072H504.803V142.816H509.171V145H497.435ZM503.555 131.128C502.475 131.128 501.611 130.288 501.611 129.208C501.611 128.104 502.475 127.264 503.555 127.264C504.635 127.264 505.475 128.104 505.475 129.208C505.475 130.288 504.635 131.128 503.555 131.128ZM512.186 145V133.072H514.49L514.634 134.464C515.522 133.408 516.818 132.832 518.258 132.832C520.778 132.832 522.89 134.536 522.89 137.824V145H520.394V138.136C520.394 136.264 519.386 135.16 517.682 135.16C515.954 135.16 514.706 136.36 514.706 138.328V145H512.186ZM531.808 150.496C528.592 150.496 526.504 148.768 526.12 146.488L528.712 146.056C529 147.424 530.176 148.216 531.808 148.216C533.776 148.216 535.12 147.136 535.12 145.264V143.296C534.256 144.28 532.984 144.856 531.448 144.856C528.088 144.856 525.616 142.288 525.616 138.856C525.616 135.424 528.088 132.832 531.448 132.832C533.032 132.832 534.328 133.432 535.192 134.488L535.312 133.072H537.616V145C537.616 148.216 535.504 150.496 531.808 150.496ZM531.688 142.552C533.704 142.552 535.12 141.04 535.12 138.856C535.12 136.648 533.704 135.136 531.688 135.136C529.648 135.136 528.232 136.648 528.232 138.856C528.232 141.04 529.648 142.552 531.688 142.552ZM560.782 145.216C558.094 145.216 555.574 144.232 555.021 141.544L557.71 141.088C558.022 142.6 559.222 143.176 560.878 143.176C562.39 143.176 563.542 142.672 563.542 141.544C563.542 140.752 563.014 140.344 561.838 140.2L559.198 139.864C556.414 139.48 555.358 138.256 555.358 136.576C555.358 134.224 557.566 132.832 560.59 132.832C563.398 132.832 565.462 134.032 565.966 136.216L563.398 136.696C563.038 135.448 562.126 134.872 560.59 134.872C559.102 134.848 557.974 135.328 557.974 136.36C557.974 137.056 558.502 137.464 559.678 137.632L562.39 137.968C565.102 138.328 566.206 139.576 566.206 141.376C566.206 143.8 563.974 145.216 560.782 145.216ZM575.028 145.216C571.524 145.216 568.932 142.6 568.932 139.024C568.932 135.472 571.524 132.832 575.028 132.832C578.556 132.832 581.124 135.472 581.124 139.024C581.124 142.6 578.556 145.216 575.028 145.216ZM575.028 142.936C577.092 142.936 578.484 141.352 578.484 139.024C578.484 136.696 577.092 135.136 575.028 135.136C572.94 135.136 571.572 136.696 571.572 139.024C571.572 141.352 572.94 142.936 575.028 142.936ZM589.419 145.216C585.915 145.216 583.323 142.6 583.323 139.024C583.323 135.472 585.915 132.832 589.419 132.832C592.947 132.832 595.515 135.472 595.515 139.024C595.515 142.6 592.947 145.216 589.419 145.216ZM589.419 142.936C591.483 142.936 592.875 141.352 592.875 139.024C592.875 136.696 591.483 135.136 589.419 135.136C587.331 135.136 585.963 136.696 585.963 139.024C585.963 141.352 587.331 142.936 589.419 142.936ZM598.529 145V133.072H600.833L600.977 134.464C601.865 133.408 603.161 132.832 604.601 132.832C607.121 132.832 609.233 134.536 609.233 137.824V145H606.737V138.136C606.737 136.264 605.729 135.16 604.025 135.16C602.297 135.16 601.049 136.36 601.049 138.328V145H598.529Z" fill="black"/>
</svg>
