<svg width="610" height="80" viewBox="0 0 610 80" fill="none" xmlns="http://www.w3.org/2000/svg">
<path d="M35.495 0.279995C39.815 0.279995 43.6817 1.21333 47.095 3.08C50.5617 4.94667 53.2817 7.56 55.255 10.92C57.2283 14.2267 58.215 17.96 58.215 22.12C58.215 26.8667 57.0417 31.0267 54.695 34.6C52.3483 38.12 49.095 40.84 44.935 42.76C40.775 44.68 36.055 45.64 30.775 45.64C27.735 45.64 24.8017 45.3733 21.975 44.84C23.4683 49.96 25.6017 55.3467 28.375 61H18.295C15.255 54.3333 13.0417 48.04 11.655 42.12C8.40167 40.8933 4.66833 38.8933 0.455 36.12L5.255 28.2C6.055 28.7867 7.62833 29.8267 9.975 31.32C9.92167 30.68 9.895 29.6933 9.895 28.36C9.895 22.8667 10.9083 18.0133 12.935 13.8C15.015 9.53333 17.975 6.22666 21.815 3.88C25.655 1.48 30.215 0.279995 35.495 0.279995ZM19.335 28.36C19.335 30.28 19.5217 32.7333 19.895 35.72C23.3083 36.7333 26.935 37.24 30.775 37.24C36.4817 37.24 40.9083 35.8533 44.055 33.08C47.255 30.3067 48.855 26.6267 48.855 22.04C48.855 19.48 48.2683 17.1867 47.095 15.16C45.975 13.1333 44.4017 11.5333 42.375 10.36C40.3483 9.18666 38.055 8.6 35.495 8.6C32.2417 8.6 29.3883 9.42666 26.935 11.08C24.4817 12.68 22.5883 14.9733 21.255 17.96C19.975 20.9467 19.335 24.4133 19.335 28.36ZM66.1444 21.24H73.9844L74.4644 26.76C75.691 24.7867 77.2377 23.2667 79.1044 22.2C81.0244 21.1333 83.2644 20.6 85.8244 20.6C87.1044 20.6 88.4644 20.7867 89.9044 21.16L88.7844 29.32C87.3444 29 85.9844 28.84 84.7044 28.84C81.771 28.84 79.3444 29.8533 77.4244 31.88C75.5044 33.9067 74.5444 36.7333 74.5444 40.36V61H66.1444V21.24ZM112.656 61.72C108.71 61.72 105.136 60.84 101.936 59.08C98.7363 57.2667 96.2296 54.8133 94.4163 51.72C92.6563 48.5733 91.7763 45.0267 91.7763 41.08C91.7763 37.1867 92.6563 33.6667 94.4163 30.52C96.2296 27.3733 98.7363 24.92 101.936 23.16C105.136 21.3467 108.71 20.44 112.656 20.44C116.603 20.44 120.176 21.3467 123.376 23.16C126.576 24.92 129.056 27.3733 130.816 30.52C132.63 33.6667 133.536 37.1867 133.536 41.08C133.536 45.0267 132.63 48.5733 130.816 51.72C129.056 54.8133 126.576 57.2667 123.376 59.08C120.176 60.84 116.603 61.72 112.656 61.72ZM100.496 41.08C100.496 44.9733 101.616 48.12 103.856 50.52C106.096 52.92 109.03 54.12 112.656 54.12C116.23 54.12 119.136 52.92 121.376 50.52C123.616 48.12 124.736 44.9733 124.736 41.08C124.736 37.1867 123.616 34.0667 121.376 31.72C119.19 29.32 116.283 28.12 112.656 28.12C109.03 28.12 106.096 29.32 103.856 31.72C101.616 34.0667 100.496 37.1867 100.496 41.08ZM160.625 61.72C156.678 61.72 153.105 60.84 149.905 59.08C146.705 57.2667 144.198 54.8133 142.385 51.72C140.625 48.5733 139.745 45.0267 139.745 41.08C139.745 37.1867 140.625 33.6667 142.385 30.52C144.198 27.3733 146.705 24.92 149.905 23.16C153.105 21.3467 156.678 20.44 160.625 20.44C164.572 20.44 168.145 21.3467 171.345 23.16C174.545 24.92 177.025 27.3733 178.785 30.52C180.598 33.6667 181.505 37.1867 181.505 41.08C181.505 45.0267 180.598 48.5733 178.785 51.72C177.025 54.8133 174.545 57.2667 171.345 59.08C168.145 60.84 164.572 61.72 160.625 61.72ZM148.465 41.08C148.465 44.9733 149.585 48.12 151.825 50.52C154.065 52.92 156.998 54.12 160.625 54.12C164.198 54.12 167.105 52.92 169.345 50.52C171.585 48.12 172.705 44.9733 172.705 41.08C172.705 37.1867 171.585 34.0667 169.345 31.72C167.158 29.32 164.252 28.12 160.625 28.12C156.998 28.12 154.065 29.32 151.825 31.72C149.585 34.0667 148.465 37.1867 148.465 41.08ZM193.965 14.76C193.965 10.3333 195.272 6.81333 197.885 4.2C200.552 1.58666 203.992 0.279995 208.205 0.279995C210.552 0.279995 212.792 0.679996 214.925 1.48L212.925 8.6C211.432 8.06666 210.098 7.8 208.925 7.8C206.792 7.8 205.138 8.38667 203.965 9.56C202.845 10.7333 202.285 12.4133 202.285 14.6V21.24H216.285V28.52H202.285V61H193.965V28.52H184.525V26.28L188.845 21.24H193.965V14.76ZM258.359 61.72C254.413 61.72 250.839 60.84 247.639 59.08C244.439 57.2667 241.933 54.8133 240.119 51.72C238.359 48.5733 237.479 45.0267 237.479 41.08C237.479 37.1867 238.359 33.6667 240.119 30.52C241.933 27.3733 244.439 24.92 247.639 23.16C250.839 21.3467 254.413 20.44 258.359 20.44C262.306 20.44 265.879 21.3467 269.079 23.16C272.279 24.92 274.759 27.3733 276.519 30.52C278.333 33.6667 279.239 37.1867 279.239 41.08C279.239 45.0267 278.333 48.5733 276.519 51.72C274.759 54.8133 272.279 57.2667 269.079 59.08C265.879 60.84 262.306 61.72 258.359 61.72ZM246.199 41.08C246.199 44.9733 247.319 48.12 249.559 50.52C251.799 52.92 254.733 54.12 258.359 54.12C261.933 54.12 264.839 52.92 267.079 50.52C269.319 48.12 270.439 44.9733 270.439 41.08C270.439 37.1867 269.319 34.0667 267.079 31.72C264.893 29.32 261.986 28.12 258.359 28.12C254.733 28.12 251.799 29.32 249.559 31.72C247.319 34.0667 246.199 37.1867 246.199 41.08ZM291.699 14.76C291.699 10.3333 293.006 6.81333 295.619 4.2C298.286 1.58666 301.726 0.279995 305.939 0.279995C308.286 0.279995 310.526 0.679996 312.659 1.48L310.659 8.6C309.166 8.06666 307.833 7.8 306.659 7.8C304.526 7.8 302.873 8.38667 301.699 9.56C300.579 10.7333 300.019 12.4133 300.019 14.6V21.24H314.019V28.52H300.019V61H291.699V28.52H282.259V26.28L286.579 21.24H291.699V14.76ZM367.214 0.279995C371.534 0.279995 375.4 1.21333 378.814 3.08C382.28 4.94667 385 7.56 386.974 10.92C388.947 14.2267 389.934 17.96 389.934 22.12C389.934 26.8667 388.76 31.0267 386.414 34.6C384.067 38.12 380.814 40.84 376.654 42.76C372.494 44.68 367.774 45.64 362.494 45.64C359.454 45.64 356.52 45.3733 353.694 44.84C355.187 49.96 357.32 55.3467 360.094 61H350.014C346.974 54.3333 344.76 48.04 343.374 42.12C340.12 40.8933 336.387 38.8933 332.174 36.12L336.974 28.2C337.774 28.7867 339.347 29.8267 341.694 31.32C341.64 30.68 341.614 29.6933 341.614 28.36C341.614 22.8667 342.627 18.0133 344.654 13.8C346.734 9.53333 349.694 6.22666 353.534 3.88C357.374 1.48 361.934 0.279995 367.214 0.279995ZM351.054 28.36C351.054 30.28 351.24 32.7333 351.614 35.72C355.027 36.7333 358.654 37.24 362.494 37.24C368.2 37.24 372.627 35.8533 375.774 33.08C378.974 30.3067 380.574 26.6267 380.574 22.04C380.574 19.48 379.987 17.1867 378.814 15.16C377.694 13.1333 376.12 11.5333 374.094 10.36C372.067 9.18666 369.774 8.6 367.214 8.6C363.96 8.6 361.107 9.42666 358.654 11.08C356.2 12.68 354.307 14.9733 352.974 17.96C351.694 20.9467 351.054 24.4133 351.054 28.36ZM397.863 21.24H405.703L406.183 26.76C407.41 24.7867 408.956 23.2667 410.823 22.2C412.743 21.1333 414.983 20.6 417.543 20.6C418.823 20.6 420.183 20.7867 421.623 21.16L420.503 29.32C419.063 29 417.703 28.84 416.423 28.84C413.49 28.84 411.063 29.8533 409.143 31.88C407.223 33.9067 406.263 36.7333 406.263 40.36V61H397.863V21.24ZM444.375 61.72C440.428 61.72 436.855 60.84 433.655 59.08C430.455 57.2667 427.948 54.8133 426.135 51.72C424.375 48.5733 423.495 45.0267 423.495 41.08C423.495 37.1867 424.375 33.6667 426.135 30.52C427.948 27.3733 430.455 24.92 433.655 23.16C436.855 21.3467 440.428 20.44 444.375 20.44C448.322 20.44 451.895 21.3467 455.095 23.16C458.295 24.92 460.775 27.3733 462.535 30.52C464.348 33.6667 465.255 37.1867 465.255 41.08C465.255 45.0267 464.348 48.5733 462.535 51.72C460.775 54.8133 458.295 57.2667 455.095 59.08C451.895 60.84 448.322 61.72 444.375 61.72ZM432.215 41.08C432.215 44.9733 433.335 48.12 435.575 50.52C437.815 52.92 440.748 54.12 444.375 54.12C447.948 54.12 450.855 52.92 453.095 50.52C455.335 48.12 456.455 44.9733 456.455 41.08C456.455 37.1867 455.335 34.0667 453.095 31.72C450.908 29.32 448.002 28.12 444.375 28.12C440.748 28.12 437.815 29.32 435.575 31.72C433.335 34.0667 432.215 37.1867 432.215 41.08ZM482.904 21.24V66.52C482.904 70.4667 481.784 73.5867 479.544 75.88C477.304 78.1733 474.237 79.32 470.344 79.32C468.264 79.32 466.317 78.9733 464.504 78.28L466.264 71.32C466.797 71.48 467.33 71.6133 467.864 71.72C468.344 71.8267 468.877 71.88 469.464 71.88C471.064 71.88 472.29 71.4267 473.144 70.52C474.05 69.6133 474.504 68.28 474.504 66.52V21.24H482.904ZM473.384 8.36C473.384 6.81333 473.89 5.56 474.904 4.6C475.917 3.58666 477.197 3.08 478.744 3.08C480.29 3.08 481.544 3.58666 482.504 4.6C483.517 5.56 484.024 6.81333 484.024 8.36C484.024 9.85333 483.517 11.1067 482.504 12.12C481.49 13.08 480.21 13.56 478.664 13.56C477.17 13.56 475.917 13.08 474.904 12.12C473.89 11.1067 473.384 9.85333 473.384 8.36ZM512.887 61.72C508.727 61.72 505.074 60.84 501.927 59.08C498.78 57.32 496.354 54.8933 494.647 51.8C492.994 48.7067 492.167 45.1867 492.167 41.24C492.167 37.2933 493.02 33.7467 494.727 30.6C496.487 27.4 498.887 24.92 501.927 23.16C505.02 21.3467 508.514 20.44 512.407 20.44C516.194 20.44 519.554 21.2667 522.487 22.92C525.42 24.52 527.714 26.76 529.367 29.64C531.02 32.52 531.847 35.8 531.847 39.48C531.847 41.0267 531.714 42.36 531.447 43.48H500.727C501.1 47 502.354 49.72 504.487 51.64C506.674 53.5067 509.474 54.44 512.887 54.44C515.714 54.44 518.007 53.8533 519.767 52.68C521.58 51.4533 522.86 49.7467 523.607 47.56L531.447 49.16C530.38 53.1067 528.194 56.2 524.887 58.44C521.58 60.6267 517.58 61.72 512.887 61.72ZM523.047 36.92C522.674 33.9867 521.527 31.6933 519.607 30.04C517.74 28.3333 515.34 27.48 512.407 27.48C509.634 27.48 507.207 28.3067 505.127 29.96C503.047 31.56 501.66 33.88 500.967 36.92H523.047ZM558.503 61.72C554.609 61.72 551.116 60.84 548.023 59.08C544.983 57.32 542.583 54.8933 540.823 51.8C539.063 48.6533 538.183 45.1067 538.183 41.16C538.183 37.2133 539.063 33.6667 540.823 30.52C542.583 27.3733 545.009 24.92 548.103 23.16C551.249 21.3467 554.769 20.44 558.663 20.44C563.409 20.44 567.436 21.7467 570.743 24.36C574.049 26.92 576.183 30.3333 577.143 34.6L568.743 36.12C568.156 33.6133 566.956 31.6667 565.143 30.28C563.383 28.84 561.196 28.12 558.582 28.12C555.169 28.12 552.369 29.32 550.183 31.72C547.996 34.12 546.903 37.2667 546.903 41.16C546.903 45.0533 547.969 48.2 550.103 50.6C552.236 52.9467 555.009 54.12 558.423 54.12C561.303 54.12 563.649 53.4 565.463 51.96C567.276 50.4667 568.476 48.44 569.063 45.88L577.383 47.32C576.903 50.04 575.783 52.4933 574.023 54.68C572.263 56.8667 570.049 58.6 567.383 59.88C564.716 61.1067 561.756 61.72 558.503 61.72ZM599.841 61.72C595.841 61.72 592.721 60.68 590.481 58.6C588.241 56.52 587.121 53.56 587.121 49.72V28.52H579.681V26.28L593.281 12.68H595.441V21.24H609.761V28.52H595.441V48.04C595.441 52.04 597.468 54.04 601.521 54.04C603.281 54.04 605.201 53.5867 607.281 52.68L609.201 59.56C606.215 61 603.095 61.72 599.841 61.72Z" fill="#64BAE1"/>
</svg>
